<svg width="20" height="18" viewBox="0 0 20 18" fill="none" xmlns="http://www.w3.org/2000/svg">
<g clip-path="url(#clip0_2001_118)">
<path d="M9.7561 1.61631C12.3628 1.61631 12.6715 1.62683 13.6966 1.6689C14.6494 1.70747 15.1639 1.85473 15.5069 1.97744C15.9604 2.13872 16.2881 2.33506 16.6273 2.6471C16.9703 2.96265 17.1799 3.26067 17.3552 3.6779C17.4886 3.99344 17.6486 4.47027 17.6905 5.34329C17.7363 6.28994 17.7477 6.57393 17.7477 8.9686C17.7477 11.3668 17.7363 11.6508 17.6905 12.5939C17.6486 13.4704 17.4886 13.9438 17.3552 14.2593C17.1799 14.6765 16.9665 14.978 16.6273 15.2901C16.2843 15.6056 15.9604 15.7985 15.5069 15.9598C15.1639 16.0825 14.6456 16.2297 13.6966 16.2683C12.6677 16.3104 12.359 16.3209 9.7561 16.3209C7.14939 16.3209 6.8407 16.3104 5.81555 16.2683C4.8628 16.2297 4.34832 16.0825 4.00534 15.9598C3.55183 15.7985 3.22408 15.6021 2.88491 15.2901C2.54192 14.9745 2.33232 14.6765 2.15701 14.2593C2.02363 13.9438 1.86357 13.4669 1.82165 12.5939C1.77591 11.6473 1.76448 11.3633 1.76448 8.9686C1.76448 6.57043 1.77591 6.28643 1.82165 5.34329C1.86357 4.46677 2.02363 3.99344 2.15701 3.6779C2.33232 3.26067 2.54573 2.95915 2.88491 2.6471C3.2279 2.33155 3.55183 2.13872 4.00534 1.97744C4.34832 1.85473 4.86662 1.70747 5.81555 1.6689C6.8407 1.62683 7.14939 1.61631 9.7561 1.61631ZM9.7561 0C7.10747 0 6.77591 0.0105183 5.73552 0.0525915C4.69893 0.0946646 3.98628 0.248933 3.3689 0.469817C2.72485 0.701219 2.17988 1.00625 1.63872 1.50762C1.09375 2.00549 0.762195 2.50686 0.510671 3.09588C0.270579 3.66738 0.102896 4.31951 0.0571646 5.27317C0.0114329 6.23384 0 6.53887 0 8.97561C0 11.4123 0.0114329 11.7174 0.0571646 12.6745C0.102896 13.6282 0.270579 14.2838 0.510671 14.8518C0.762195 15.4444 1.09375 15.9457 1.63872 16.4436C2.17988 16.9415 2.72485 17.25 3.36509 17.4779C3.98628 17.6988 4.69512 17.853 5.73171 17.8951C6.7721 17.9372 7.10366 17.9477 9.75229 17.9477C12.4009 17.9477 12.7325 17.9372 13.7729 17.8951C14.8095 17.853 15.5221 17.6988 16.1395 17.4779C16.7797 17.25 17.3247 16.9415 17.8659 16.4436C18.407 15.9457 18.7424 15.4444 18.9901 14.8553C19.2302 14.2838 19.3979 13.6317 19.4436 12.678C19.4893 11.7209 19.5008 11.4159 19.5008 8.97912C19.5008 6.54238 19.4893 6.23735 19.4436 5.28018C19.3979 4.32652 19.2302 3.67088 18.9901 3.1029C18.75 2.50686 18.4184 2.00549 17.8735 1.50762C17.3323 1.00976 16.7873 0.701219 16.1471 0.473323C15.5259 0.252439 14.8171 0.0981707 13.7805 0.0560976C12.7363 0.0105183 12.4047 0 9.7561 0Z" fill="#F3F3F3"/>
<path d="M9.75606 4.36509C6.98929 4.36509 4.74463 6.43018 4.74463 8.97561C4.74463 11.521 6.98929 13.5861 9.75606 13.5861C12.5228 13.5861 14.7675 11.521 14.7675 8.97561C14.7675 6.43018 12.5228 4.36509 9.75606 4.36509ZM9.75606 11.9663C7.96109 11.9663 6.5053 10.627 6.5053 8.97561C6.5053 7.32424 7.96109 5.98491 9.75606 5.98491C11.551 5.98491 13.0068 7.32424 13.0068 8.97561C13.0068 10.627 11.551 11.9663 9.75606 11.9663Z" fill="#F3F3F3"/>
<path d="M16.1357 4.18274C16.1357 4.77878 15.6098 5.25911 14.9657 5.25911C14.3179 5.25911 13.7958 4.77527 13.7958 4.18274C13.7958 3.5867 14.3217 3.10637 14.9657 3.10637C15.6098 3.10637 16.1357 3.59021 16.1357 4.18274Z" fill="#F3F3F3"/>
</g>
<defs>
<clipPath id="clip0_2001_118">
<rect width="19.5122" height="17.9512" fill="white"/>
</clipPath>
</defs>
</svg>
